<?xml version="1.0" encoding="UTF-8"?><svg id="a" xmlns="http://www.w3.org/2000/svg" viewBox="0 0 1200 1200"><defs><style>.b{fill:#fff;}</style></defs><path class="b" d="M330,733.39c0,.89,.72,1.61,1.61,1.61h86.78c.89,0,1.61-.72,1.61-1.61v-86.78c0-.89-.72-1.61-1.61-1.61h-86.78c-.89,0-1.61,.72-1.61,1.61V285h-90V825h-90v90h90v90h180v90h90v-90h180v90h90v-90h90v-90H330v-181.61Z"/><polygon class="b" points="870 195 510 195 510 105 420 105 420 195 330 195 330 285 870 285 870 195"/><polygon class="b" points="960 375 960 285 870 285 870 915 960 915 960 555 1050 555 1050 465 1140 465 1140 375 960 375"/><rect class="b" x="690" y="375" width="90" height="90"/><rect class="b" x="60" y="735" width="90" height="90"/><rect class="b" x="420" y="735" width="90" height="90"/><rect class="b" x="510" y="645" width="90" height="90"/></svg>