<svg id="One_shape" data-name="One shape" xmlns="http://www.w3.org/2000/svg" viewBox="0 0 1200 1200"><polygon points="756 540 756 420 852 420 852 300 948 300 948 180 828 180 828 300 732 300 732 420 636 420 636 540 564 540 564 420 468 420 468 300 372 300 372 180 252 180 252 300 348 300 348 420 444 420 444 540 540 540 540 660 444 660 444 780 348 780 348 900 252 900 252 1020 372 1020 372 900 468 900 468 780 564 780 564 660 636 660 636 780 732 780 732 900 828 900 828 1020 948 1020 948 900 852 900 852 780 756 780 756 660 660 660 660 540 756 540"/></svg>