<svg id="One_shape" data-name="One shape" xmlns="http://www.w3.org/2000/svg" viewBox="0 0 1200 1200"><rect x="195" y="285" width="90" height="90"/><polygon points="915 555 915 465 915 375 915 285 825 285 825 375 825 465 735 465 735 285 735 195 645 195 645 105 465 105 465 195 555 195 555 285 465 285 465 465 375 465 375 375 285 375 285 465 285 555 285 645 195 645 195 1005 285 1005 285 1095 465 1095 555 1095 555 1005 465 1005 465 915 375 915 375 735 465 735 465 645 555 645 555 735 645 735 645 645 735 645 735 825 825 825 825 915 735 915 735 1095 915 1095 915 1005 1005 1005 1005 555 915 555"/></svg>