<?xml version="1.0" encoding="UTF-8"?><svg id="a" xmlns="http://www.w3.org/2000/svg" viewBox="0 0 1200 1200"><rect x="778.06" y="300" width="121.29" height="120"/><polygon points="1019.35 780 1019.35 660 1139.35 660 1139.35 540 1019.35 540 1019.35 420 899.35 420 899.35 540 299.35 540 299.35 660 899.35 660 899.35 780 1019.35 780"/><rect x="778.06" y="780" width="121.29" height="120"/><polygon points="1019.35 900 1019.35 1020 180.65 1020 180.65 180 1018.06 180 1018.06 300 1139.35 300 1139.35 60 1091.35 60 1018.06 60 59.35 60 59.35 156 59.35 180 59.35 1020 59.35 1044 59.35 1140 1019.35 1140 1091.35 1140 1140.65 1140 1140.65 900 1019.35 900"/></svg>