<svg id="One_shape" data-name="One shape" xmlns="http://www.w3.org/2000/svg" viewBox="0 0 1200 1200"><path d="M330,733.39a1.61,1.61,0,0,0,1.61,1.61h86.78a1.61,1.61,0,0,0,1.61-1.61V646.61a1.61,1.61,0,0,0-1.61-1.61H331.61a1.61,1.61,0,0,0-1.61,1.61V285H240V825H150v90h90v90H420v90h90v-90H690v90h90v-90h90V915H330Z"/><polygon points="870 195 510 195 510 105 420 105 420 195 330 195 330 285 870 285 870 195"/><polygon points="960 375 960 285 870 285 870 915 960 915 960 555 1050 555 1050 465 1140 465 1140 375 960 375"/><rect x="690" y="375" width="90" height="90"/><rect x="60" y="735" width="90" height="90"/><rect x="420" y="735" width="90" height="90"/><rect x="510" y="645" width="90" height="90"/></svg>