<svg id="One_shape" data-name="One shape" xmlns="http://www.w3.org/2000/svg" viewBox="0 0 1200 1200"><polygon points="1005 553.95 1005 643.95 915 643.95 915 735 825 735 825 733.95 645 733.95 645 643.95 555 643.95 555 553.95 465 553.95 465 465 465 373.95 555 373.95 555 195 645 195 645 105 375 105 375 193.95 375 195 285 195 285 285 195 285 195 465 105 465 105 735 195 735 195 915 285 915 285 1005 465 1005 465 1095 825 1095 825 1003.95 915 1003.95 915 913.95 1005 913.95 1005 843 1005 823.95 1095 823.95 1095 553.95 1005 553.95"/></svg>